<svg id="Camada_1" data-name="Camada 1" xmlns="http://www.w3.org/2000/svg" viewBox="0 0 19.57 21.84"><defs><style>.cls-1{fill:#469ed6;}.cls-2{fill:#fff;}</style></defs><title>agenda</title><path class="cls-1" d="M10.74,4.08H8.28V6.22H6.6A2.12,2.12,0,0,0,5.26,7.84c-.09,1.16,0,16.54,0,16.54a1.79,1.79,0,0,0,1.86,1.53H23a1.76,1.76,0,0,0,1.72-1.86c.14-1.9,0-16.17,0-16.17a1.77,1.77,0,0,0-1.67-1.63H21.38V4.08H19.19V6.27H10.74Z" transform="translate(-5.21 -4.08)"/><rect class="cls-2" x="2.27" y="7.81" width="14.96" height="11.74"/><path class="cls-2" d="M13.5,20.28" transform="translate(-5.21 -4.08)"/><path class="cls-1" d="M10.35,18.37a.84.84,0,0,1,.07-1c.87-1.17,2.66,2,2.87,1.78L16,16.42l1.4-1.4c.59-.59,1-1.25,1.94-.76a.72.72,0,0,1,.26,1.05c-.63,1.29-6.18,6.18-6.18,6.18l-2-1.94A5.66,5.66,0,0,1,10.35,18.37Z" transform="translate(-5.21 -4.08)"/></svg>