<svg id="Camada_3" data-name="Camada 3" xmlns="http://www.w3.org/2000/svg" viewBox="0 0 25.11 26.11"><defs><style>.cls-1{fill:#61abda;}</style></defs><title>digital</title><path class="cls-1" d="M5,7.7C9.64,3,16.73,2,22.84,4c.46.15.66-.57.2-.72C16.68,1.18,9.3,2.33,4.42,7.17A.38.38,0,0,0,5,7.7Z" transform="translate(-2.87 -2.27)"/><path class="cls-1" d="M9.75,5.36c-2.62,1.6-6,3.95-6.86,7a.38.38,0,0,0,.72.2C4.44,9.73,7.69,7.5,10.13,6c.41-.25,0-.9-.38-.65Z" transform="translate(-2.87 -2.27)"/><path class="cls-1" d="M12.22,5.3A14.44,14.44,0,0,1,24.75,6.76c.41.26.79-.39.38-.65A15.17,15.17,0,0,0,12,4.58c-.45.16-.26.88.2.72Z" transform="translate(-2.87 -2.27)"/><path class="cls-1" d="M4.55,25.34a21.06,21.06,0,0,1-.92-4.84.38.38,0,0,0-.75,0,21.87,21.87,0,0,0,1,5,.38.38,0,0,0,.72-.2Z" transform="translate(-2.87 -2.27)"/><path class="cls-1" d="M6.26,25.75C2.22,18,6.17,8.69,15.1,7.42c.48-.07.27-.79-.2-.72C5.42,8.05,1.38,18,5.61,26.13c.22.43.87,0,.65-.38Z" transform="translate(-2.87 -2.27)"/><path class="cls-1" d="M16.63,7.44c4.43.06,8.88,2.34,10.68,6.5.19.44.84.06.65-.38-1.9-4.4-6.65-6.8-11.32-6.87a.38.38,0,0,0,0,.75Z" transform="translate(-2.87 -2.27)"/><path class="cls-1" d="M8.51,27.44c-1.93-4-2.84-9.07-.62-13.06.23-.42-.41-.8-.65-.38-2.36,4.25-1.43,9.61.63,13.82.21.43.86.05.65-.38Z" transform="translate(-2.87 -2.27)"/><path class="cls-1" d="M10.17,27.12a14.27,14.27,0,0,1-1.86-6.22.38.38,0,0,0-.75,0,15.08,15.08,0,0,0,2,6.6c.23.42.88,0,.65-.38Z" transform="translate(-2.87 -2.27)"/><path class="cls-1" d="M8,19.31c0-5.18,4.31-8.5,9.19-8.87.48,0,.48-.79,0-.75-5.29.41-9.9,4-9.94,9.63a.38.38,0,0,0,.75,0Z" transform="translate(-2.87 -2.27)"/><path class="cls-1" d="M9.16,12.2a14.77,14.77,0,0,1,5.7-3c5.84-1.51,9.73,2.51,12.07,7.45.21.44.85.06.65-.38-2.25-4.75-6-8.91-11.67-8a15.07,15.07,0,0,0-7.27,3.41c-.37.31.16.84.53.53Z" transform="translate(-2.87 -2.27)"/><path class="cls-1" d="M19,10.77c3.78.77,6.14,4.25,6.47,7.92,0,.48.79.48.75,0-.36-4-2.9-7.8-7-8.64-.47-.1-.67.63-.2.72Z" transform="translate(-2.87 -2.27)"/><path class="cls-1" d="M11.51,26.75C10,23.43,9,19.23,10.3,15.72c.17-.45-.55-.65-.72-.2-1.4,3.7-.32,8.12,1.29,11.6.2.44.85.06.65-.38Z" transform="translate(-2.87 -2.27)"/><path class="cls-1" d="M11.45,14.45a8.5,8.5,0,0,1,5.6-2.22c3.42,0,7.88,3.12,7.08,7a.38.38,0,0,0,.26.46c.72.15,1.78.35,2.21,1,.26.4.91,0,.65-.38a2.4,2.4,0,0,0-1.49-1c-1.39-.38-.63.3-.83-.5-.6-2.38-.9-4.34-3.18-5.9a9,9,0,0,0-10.84,1.06c-.35.33.18.86.53.53Z" transform="translate(-2.87 -2.27)"/><path class="cls-1" d="M26.56,21.24l-1.3-.57c-.52-.22-1.55-.37-1.82-.87a13.07,13.07,0,0,1-.39-2.07c-.17-.56-.36-1.11-.57-1.65s-.9-.25-.72.2c.24.62.46,1.24.64,1.88s.05,1.57.47,2.21.82.51,1.36.7,1.31.53,2,.82c.44.2.82-.45.38-.65Z" transform="translate(-2.87 -2.27)"/><path class="cls-1" d="M20.49,14.09c-.31-1.47-2.81-1.45-3.86-1.4-.48,0-.48.77,0,.75.74,0,2.94-.08,3.14.85.1.47.82.27.72-.2Z" transform="translate(-2.87 -2.27)"/><path class="cls-1" d="M13.82,27.12c-2.9-4.44-4.81-11.21,1.9-13.72.45-.17.25-.89-.2-.72-3.77,1.41-5.51,4.56-5.1,8.52.24,2.36,1.47,4.33,2.76,6.3.26.4.91,0,.65-.38Z" transform="translate(-2.87 -2.27)"/><path class="cls-1" d="M15.95,27.81c-2-2.67-3.51-6.24-3-9.59.08-.47-.64-.68-.72-.2-.59,3.57,1,7.31,3,10.16.28.39.93,0,.65-.38Z" transform="translate(-2.87 -2.27)"/><path class="cls-1" d="M13.77,16.44c2.37-2,5.32-1.81,6.85,1.08.67,1.27.45,3.71,1.66,4.69.64.52,1.52.32,2.29.35.48,0,.48-.73,0-.75-.83,0-1.44.17-2-.5S22,19,21.65,18a5.61,5.61,0,0,0-3.1-3.51c-1.83-.63-3.9.23-5.31,1.41-.37.31.16.84.53.53Z" transform="translate(-2.87 -2.27)"/><path class="cls-1" d="M24.75,23.73c-1.7-.13-3.64-1.06-4.15-2.8-.26-.89.29-4.47-1.64-4.11-.47.09-.27.81.2.72.71-.13.53,2.62.62,3.16a4,4,0,0,0,1.43,2.43,6.48,6.48,0,0,0,3.53,1.35c.48,0,.48-.71,0-.75Z" transform="translate(-2.87 -2.27)"/><path class="cls-1" d="M24,25.08a6.2,6.2,0,0,1-3.24-1.69,6.34,6.34,0,0,1-2-4,2.8,2.8,0,0,0-.62-1.71,1.65,1.65,0,0,0-2.43.21c-1.15,1.24-.74,3.09-.11,4.46.2.44.85.06.65-.38A3.68,3.68,0,0,1,16,18.85c.31-.59,1-1.17,1.64-.61s.29,1.4.39,2a6.88,6.88,0,0,0,1.19,2.46,7.19,7.19,0,0,0,4.58,3.06c.47.07.68-.66.2-.72Z" transform="translate(-2.87 -2.27)"/><path class="cls-1" d="M19.11,24.44c-.91-1.63-2-3.65-1.86-5.56,0-.48-.73-.48-.75,0-.1,2,1,4.2,2,5.94a.38.38,0,0,0,.65-.38Z" transform="translate(-2.87 -2.27)"/><path class="cls-1" d="M19.43,25.51c.44.28.89.54,1.36.78a2.84,2.84,0,0,0,1.75.51c.47-.11.27-.83-.2-.72s-1.15-.42-1.49-.6-.7-.4-1-.61-.79.39-.38.65Z" transform="translate(-2.87 -2.27)"/><path class="cls-1" d="M20.77,27.36a14,14,0,0,1-3.82-3.92c-.22-.43-.87-.05-.65.38a14.39,14.39,0,0,0,3.93,4.08c.37.3.91-.23.53-.53Z" transform="translate(-2.87 -2.27)"/><path class="cls-1" d="M18.34,27.73c-2.78-2.95-7-9.25-1-11.19.46-.15.26-.87-.2-.72-6.6,2.16-2.53,9,.72,12.45.33.35.86-.18.53-.53Z" transform="translate(-2.87 -2.27)"/><path class="cls-1" d="M3.63,18.13c-.19-10.89,13.93-15,21.75-9.29.39.29.76-.36.38-.65C17.49,2.13,2.67,6.61,2.87,18.13a.38.38,0,0,0,.75,0Z" transform="translate(-2.87 -2.27)"/></svg>