<svg id="Camada_1" data-name="Camada 1" xmlns="http://www.w3.org/2000/svg" viewBox="0 0 20.29 19.6"><defs><style>.cls-1{fill:#469ed6;}.cls-2{fill:#f2f1f5;}</style></defs><title>dolar</title><ellipse class="cls-1" cx="10.15" cy="9.8" rx="10.15" ry="9.8"/><path class="cls-2" d="M17.06,12.52c.18,0,1.79,0,2,0a3.29,3.29,0,0,0-3-3.57v-2H13V9a3.44,3.44,0,0,0-3,2.77,3.76,3.76,0,0,0,3.12,4.2c.65.16,1.32.24,2,.46a2.52,2.52,0,0,1,1.83,1.95c.13,1.23-1.14,1.7-2.16,1.7A3.27,3.27,0,0,1,12,18.63c-.31-.47-.3-.69-.89-.75-.29,0-.92-.1-1.15.13a.53.53,0,0,0-.15.32,3.7,3.7,0,0,0,.77,2A3.17,3.17,0,0,0,13,21.54s0,1.84,0,2h3l0-1.84s1.46-.67,1.58-.74a3.06,3.06,0,0,0,1.47-3.87,4.46,4.46,0,0,0-2.57-2.3c-1.14-.49-2.37-.86-3.46-1.44a1.53,1.53,0,0,1-.93-1.43,1.66,1.66,0,0,1,1.09-1.13,3.2,3.2,0,0,1,2.16-.23A2.37,2.37,0,0,1,17,12.51Z" transform="translate(-4.13 -5.2)"/></svg>