<?xml version="1.0" encoding="UTF-8"?>
<svg width="940px" height="129px" viewBox="0 0 940 129" version="1.1" xmlns="http://www.w3.org/2000/svg" xmlns:xlink="http://www.w3.org/1999/xlink">
    <!-- Generator: Sketch 45.2 (43514) - http://www.bohemiancoding.com/sketch -->
    <title>Fill 1</title>
    <desc>Created with Sketch.</desc>
    <defs></defs>
    <g id="site" stroke="none" stroke-width="1" fill="none" fill-rule="evenodd">
        <g id="sisSofia" transform="translate(-250.000000, -1322.000000)" fill="#E0F4FF">
            <path d="M1154.205,1397.75223 L1171.142,1397.75223 L1171.142,1404.09082 C1171.142,1405.21795 1172.897,1405.72134 1173.746,1405.72134 L1182.494,1405.72134 L1182.494,1413.19709 C1182.494,1414.32321 1184.248,1414.82661 1185.098,1414.82661 L1186.578,1414.82661 L1186.578,1450.62195 C1187.716,1450.76635 1188.857,1450.8927 1190,1451 L1190,1414.12366 C1190,1412.99653 1188.245,1412.49314 1187.396,1412.49314 L1185.915,1412.49314 L1185.915,1405.01839 C1185.915,1403.89126 1184.16,1403.38787 1183.311,1403.38787 L1174.564,1403.38787 L1174.564,1397.04928 C1174.564,1395.92215 1172.809,1395.41875 1171.96,1395.41875 L1152.43,1395.41875 L1152.43,1387.37443 C1152.43,1386.2473 1150.675,1385.7449 1149.826,1385.7449 L1142.428,1385.7449 C1142.018,1385.7449 1141.61,1386.01064 1141.61,1386.44786 L1141.61,1400.56202 C1141.505,1400.55099 1141.401,1400.54197 1141.311,1400.54197 L1128.808,1400.54197 C1128.399,1400.54197 1127.99,1400.80771 1127.99,1401.24492 L1127.99,1406.30195 C1127.99,1408.6956 1128.257,1407.9405 1126.158,1407.9405 C1125.75,1407.9405 1125.341,1408.20624 1125.341,1408.64345 L1125.341,1414.968 C1125.341,1416.41602 1125.072,1416.4782 1125.669,1416.4782 L1124.05,1416.4782 L1124.05,1387.37443 C1124.05,1386.2473 1122.295,1385.7449 1121.446,1385.7449 L1098.159,1385.7449 C1097.75,1385.7449 1097.342,1386.01064 1097.342,1386.44786 L1097.342,1392.69018 C1097.342,1392.96294 1097.389,1393.12539 1097.442,1393.23469 C1097.315,1393.18756 1097.118,1393.14945 1096.806,1393.14544 L1096.806,1378.83774 C1096.806,1377.71061 1095.052,1377.20721 1094.202,1377.20721 L1085.102,1377.20721 C1084.694,1377.20721 1084.285,1377.47295 1084.285,1377.91016 L1084.285,1403.80402 C1084.285,1403.91032 1084.304,1403.98051 1084.322,1404.05271 C1084.143,1403.99956 1083.897,1403.95645 1083.496,1403.95645 L1075.808,1403.95645 L1075.808,1381.11205 C1075.808,1379.98592 1074.053,1379.48253 1073.204,1379.48253 L1071.834,1379.48253 L1071.834,1359.48503 C1071.834,1358.3579 1070.079,1357.8545 1069.229,1357.8545 L1067.293,1357.8545 L1067.293,1349.81018 C1067.293,1348.68305 1065.538,1348.18066 1064.689,1348.18066 L1047.642,1348.18066 C1047.233,1348.18066 1046.824,1348.44639 1046.824,1348.88361 L1046.824,1356.46765 C1046.824,1358.92046 1046.732,1357.8545 1044.237,1357.8545 C1043.829,1357.8545 1043.42,1358.12124 1043.42,1358.55846 L1043.42,1377.76977 C1043.42,1376.70582 1040.73,1377.20721 1039.129,1377.20721 C1038.721,1377.20721 1038.311,1377.47295 1038.311,1377.91016 L1038.311,1393.65887 C1038.177,1393.64282 1037.802,1393.71201 1036.828,1393.71201 L1026.996,1393.71201 L1026.996,1364.03967 C1026.996,1362.91254 1025.241,1362.40914 1024.392,1362.40914 L1022.455,1362.40914 L1022.455,1355.50197 C1022.455,1354.37485 1020.7,1353.87145 1019.851,1353.87145 L1018.481,1353.87145 L1018.481,1346.20116 C1018.481,1345.07403 1016.726,1344.57164 1015.878,1344.57164 L1012.807,1344.57164 L1012.807,1323.62952 C1012.807,1322.50239 1011.052,1322 1010.203,1322 L1000.535,1322 C1000.127,1322 999.718,1322.26574 999.718,1322.70295 L999.718,1344.3039 C999.718,1344.49342 999.737,1344.62178 999.765,1344.72306 C999.614,1344.64184 999.357,1344.57164 998.923,1344.57164 L996.561,1344.57164 C996.152,1344.57164 995.744,1344.83738 995.744,1345.27459 L995.744,1351.20004 C995.744,1352.23591 994.585,1351.59413 992.589,1351.59413 C992.181,1351.59413 991.771,1351.86087 991.771,1352.29808 L991.771,1361.65004 C991.771,1362.4282 992.038,1361.83856 989.841,1361.83856 L986.347,1361.83856 C985.937,1361.83856 985.528,1362.1053 985.528,1362.54251 L985.528,1392.57787 C985.528,1392.93285 985.58,1393.14344 985.638,1393.29285 C985.465,1393.21263 985.18,1393.14243 984.708,1393.14243 L973.471,1393.14243 C973.061,1393.14243 972.652,1393.40917 972.652,1393.84639 L972.652,1402.96971 C972.652,1403.60347 972.738,1403.91032 972.813,1404.06073 C972.723,1404.00658 972.573,1403.95645 972.313,1403.95645 L970.236,1403.95645 L970.236,1377.69857 C970.236,1376.57145 968.481,1376.06805 967.633,1376.06805 L950.94,1376.06805 L950.94,1353.22465 C950.94,1352.09753 949.185,1351.59413 948.336,1351.59413 L945.264,1351.59413 L945.264,1346.20116 C945.264,1345.07403 943.509,1344.57164 942.66,1344.57164 L924.479,1344.57164 C924.071,1344.57164 923.662,1344.83738 923.662,1345.27459 L923.662,1351.37151 C923.662,1350.70767 921.695,1351.02655 920.507,1351.02655 C920.099,1351.02655 919.689,1351.29229 919.689,1351.72951 C919.689,1356.78253 920.793,1356.71735 915.967,1356.71735 C915.558,1356.71735 915.149,1356.98409 915.149,1357.4213 L915.149,1393.90154 C915.149,1397.10142 915.585,1397.34309 914.344,1397.20872 L914.344,1389.64974 C914.344,1388.52261 912.589,1388.01922 911.74,1388.01922 L906.102,1388.01922 L906.102,1353.79524 C906.102,1352.66811 904.348,1352.16471 903.498,1352.16471 L872.264,1352.16471 C871.854,1352.16471 871.445,1352.43045 871.445,1352.86766 L871.445,1376.9866 C871.445,1377.11195 871.461,1377.19819 871.476,1377.28142 C871.349,1377.2393 871.188,1377.20721 870.944,1377.20721 L869.777,1377.20721 L869.777,1332.36577 C869.777,1331.23964 868.022,1330.73624 867.174,1330.73624 L845.019,1330.73624 C844.61,1330.73624 844.202,1331.00299 844.202,1331.4392 L844.202,1389.2747 C844.202,1389.83726 844.181,1390.13208 844.169,1390.29754 L841.795,1390.29754 L841.795,1357.20871 C841.795,1356.08158 840.04,1355.57819 839.191,1355.57819 L820.046,1355.57819 C819.637,1355.57819 819.227,1355.84493 819.227,1356.28214 L819.227,1362.04513 C819.227,1363.05995 817.449,1362.40914 815.505,1362.40914 C815.097,1362.40914 814.687,1362.67588 814.687,1363.1131 L814.687,1373.60822 C814.687,1376.13524 815.416,1375.50047 813.971,1375.50047 L810.398,1375.50047 C809.989,1375.50047 809.58,1375.76621 809.58,1376.20343 L809.58,1390.2484 C809.58,1389.90244 809.372,1389.742 809.045,1389.6708 L809.045,1351.51792 C809.045,1350.39079 807.29,1349.88739 806.441,1349.88739 L792.587,1349.88739 L792.587,1346.20116 C792.587,1345.07403 790.832,1344.57164 789.983,1344.57164 L779.181,1344.57164 C778.771,1344.57164 778.362,1344.83738 778.362,1345.27459 L778.362,1354.67869 C778.362,1357.99188 778.59,1356.71735 775.208,1356.71735 C774.799,1356.71735 774.39,1356.98409 774.39,1357.4213 L774.39,1383.86268 C774.39,1384.22669 774.38,1384.45031 774.373,1384.60574 L772.666,1384.60574 L772.666,1369.16088 C772.666,1368.03375 770.911,1367.53036 770.062,1367.53036 L755.693,1367.53036 L755.693,1361.19377 C755.693,1360.06664 753.938,1359.56325 753.089,1359.56325 L733.207,1359.56325 C732.798,1359.56325 732.389,1359.82999 732.389,1360.2672 L732.389,1369.61815 C732.389,1369.72745 732.407,1369.81169 732.435,1369.87687 C732.261,1369.83976 732.018,1369.80768 731.619,1369.80768 L719.018,1369.80768 C718.609,1369.80768 718.2,1370.07442 718.2,1370.51163 L718.2,1402.33996 C718.2,1403.03689 718.177,1403.35979 718.173,1403.50218 L716.736,1403.50218 L716.736,1370.0694 C716.736,1368.94227 714.982,1368.43888 714.133,1368.43888 L701.037,1368.43888 L701.037,1362.01806 C701.037,1360.89093 699.282,1360.38854 698.434,1360.38854 L689.381,1360.38854 C688.972,1360.38854 688.562,1360.65427 688.562,1361.09149 C688.562,1363.04491 688.056,1368.43888 689.089,1368.43888 L680.106,1368.43888 C679.697,1368.43888 679.288,1368.70562 679.288,1369.14283 L679.288,1402.07222 C679.288,1405.46964 679.195,1403.86018 675.645,1403.86018 C675.236,1403.86018 674.826,1404.12692 674.826,1404.56413 L674.826,1418.22805 C674.826,1420.11429 674.46,1421.75083 675.237,1421.75083 L670.568,1421.75083 L670.568,1389.56952 C670.568,1388.44239 668.813,1387.93899 667.965,1387.93899 L667.319,1387.93899 L667.319,1367.74194 C667.319,1366.61582 665.564,1366.11242 664.716,1366.11242 L662.679,1366.11242 L662.679,1365.59498 C662.679,1364.46886 660.924,1363.96546 660.076,1363.96546 L658.754,1363.96546 L658.754,1358.97762 C658.754,1357.85049 656.999,1357.3471 656.151,1357.3471 L642.285,1357.3471 C641.875,1357.3471 641.466,1357.61283 641.466,1358.05005 L641.466,1358.77807 L623.016,1358.77807 C622.607,1358.77807 622.198,1359.0438 622.198,1359.48102 C622.198,1362.26274 623.155,1363.25148 620.518,1363.25148 C620.109,1363.25148 619.699,1363.51722 619.699,1363.95443 C619.699,1367.03197 620.054,1366.47041 617.128,1366.47041 C616.719,1366.47041 616.309,1366.73615 616.309,1367.17336 L616.309,1387.06958 C616.181,1387.05554 616.025,1387.04551 615.821,1387.04551 L614.688,1387.04551 L614.688,1369.8889 C614.688,1368.76177 612.934,1368.25938 612.085,1368.25938 L609.872,1368.25938 L609.872,1365.59498 C609.872,1364.46886 608.118,1363.96546 607.269,1363.96546 L582.519,1363.96546 C582.11,1363.96546 581.701,1364.2312 581.701,1364.66841 C581.701,1369.61614 582.057,1368.61737 577.166,1368.61737 C576.757,1368.61737 576.348,1368.88311 576.348,1369.32032 L576.348,1396.76449 C576.348,1398.85629 575.954,1398.85128 576.947,1398.85128 L568.662,1398.85128 L568.662,1367.56445 C568.662,1366.43732 566.907,1365.93393 566.058,1365.93393 L565.269,1365.93393 L565.269,1363.27053 C565.269,1362.14441 563.515,1361.64101 562.666,1361.64101 L539.879,1361.64101 C539.47,1361.64101 539.06,1361.90675 539.06,1362.34396 C539.06,1365.84568 540.027,1365.93393 536.847,1365.93393 C536.437,1365.93393 536.028,1366.20067 536.028,1366.63788 C536.028,1369.41158 535.797,1368.43888 532.69,1368.43888 L517.459,1368.43888 L517.459,1356.29217 C517.459,1355.16604 515.704,1354.66265 514.855,1354.66265 L513.177,1354.66265 L513.177,1347.88584 C513.177,1346.75871 511.422,1346.25531 510.574,1346.25531 L508.716,1346.25531 L508.716,1345.02289 C508.716,1343.89576 506.961,1343.39237 506.113,1343.39237 L503.9,1343.39237 L503.9,1341.08697 C503.9,1339.96084 502.145,1339.45745 501.297,1339.45745 L489.926,1339.45745 C489.517,1339.45745 489.107,1339.72319 489.107,1340.1604 C489.107,1344.40317 489.738,1343.75036 485.644,1343.75036 C485.235,1343.75036 484.825,1344.0171 484.825,1344.45432 C484.825,1347.50177 485.454,1347.1498 482.612,1347.1498 C482.203,1347.1498 481.793,1347.41553 481.793,1347.85275 L481.793,1354.88727 C481.793,1355.86398 482.113,1355.20014 479.974,1355.20014 L477.795,1355.20014 C477.386,1355.20014 476.977,1355.46688 476.977,1355.90409 L476.977,1364.02162 C476.977,1363.30262 473.993,1363.53828 472.143,1363.59544 L472.143,1330.35218 C472.143,1329.22505 470.388,1328.72165 469.54,1328.72165 L435.69,1328.72165 C435.282,1328.72165 434.872,1328.98739 434.872,1329.4246 L434.872,1351.67535 C434.872,1350.60639 433.713,1351.08572 431.58,1351.08572 L422.489,1351.08572 C422.08,1351.08572 421.67,1351.35146 421.67,1351.78867 L421.67,1366.34206 C421.67,1366.62986 421.721,1366.54963 421.478,1366.44334 L421.478,1365.41749 C421.478,1364.29036 419.723,1363.78697 418.875,1363.78697 L395.549,1363.78697 C395.14,1363.78697 394.73,1364.05371 394.73,1364.49092 L394.73,1371.37302 C394.73,1374.12265 395.464,1373.62627 393.41,1373.62627 C393.001,1373.62627 392.591,1373.89301 392.591,1374.33023 L392.591,1375.24577 C392.552,1375.24376 392.505,1375.23775 392.469,1375.23775 L364.592,1375.23775 C362.645,1375.23775 364.849,1377.54314 365.977,1377.5652 C366.173,1377.56922 366.369,1377.57323 366.565,1377.57623 C366.698,1379.2589 366.858,1379.53066 364.567,1379.53066 C364.15,1379.53066 363.758,1379.7974 363.748,1380.23361 C363.589,1387.8698 363.43,1395.50499 363.27,1403.14018 C363.188,1407.04301 363.107,1410.94584 363.026,1414.84968 C363.021,1415.07229 363.034,1415.23675 363.055,1415.36711 C362.965,1415.33402 362.85,1415.30995 362.694,1415.30995 L359.214,1415.30995 L359.214,1384.38012 C359.214,1383.25299 357.459,1382.74959 356.611,1382.74959 L353.684,1382.74959 L353.684,1381.33868 C353.684,1380.21155 351.929,1379.70815 351.08,1379.70815 L350.115,1379.70815 L350.115,1376.33078 C350.115,1375.20365 348.36,1374.70126 347.511,1374.70126 L328.114,1374.70126 C327.705,1374.70126 327.295,1374.96699 327.295,1375.40421 L327.295,1380.70391 C327.295,1380.12531 325.306,1380.42514 324.544,1380.42514 C324.136,1380.42514 323.726,1380.69088 323.726,1381.12809 L323.726,1392.72528 C323.553,1392.7353 323.195,1392.7694 322.468,1392.7694 L305.633,1392.7694 C305.378,1392.7694 305.135,1392.88271 304.979,1393.06622 L304.979,1356.83066 C304.979,1355.70353 303.225,1355.20014 302.376,1355.20014 L300.875,1355.20014 L300.875,1345.55838 C300.875,1344.43225 299.12,1343.92785 298.271,1343.92785 L294.095,1343.92785 L294.095,1343.41242 C294.095,1342.2853 292.34,1341.7819 291.492,1341.7819 L280.836,1341.7819 C280.427,1341.7819 280.018,1342.04864 280.018,1342.48585 C280.018,1344.40117 280.287,1344.10635 278.516,1344.10635 C278.381,1344.10635 278.253,1344.14446 278.134,1344.1976 C277.861,1344.13744 277.602,1344.10635 277.396,1344.10635 L269.06,1344.10635 C268.651,1344.10635 268.242,1344.37309 268.242,1344.8093 C268.242,1345.95047 269.153,1345.89732 268.269,1345.89732 L257.643,1345.89732 C257.234,1345.89732 256.824,1346.16406 256.824,1346.60127 L256.824,1412.62751 L250.818,1412.62751 C250.41,1412.62751 250,1412.89325 250,1413.33046 L250,1447.91845 C250,1448.16614 250.095,1448.37873 250.237,1448.56725 C251.538,1448.6224 252.839,1448.6575 254.141,1448.70664 C254.085,1448.30051 253.804,1447.98263 253.422,1447.74697 L253.422,1414.93792 C253.422,1414.93291 253.42,1414.9319 253.42,1414.92689 C253.496,1414.94394 253.574,1414.96098 253.686,1414.96098 L259.427,1414.96098 C259.836,1414.96098 260.246,1414.69525 260.246,1414.25703 L260.246,1348.21275 C260.292,1348.21776 260.325,1348.2308 260.383,1348.2308 L270.845,1348.2308 C271.254,1348.2308 271.663,1347.96506 271.663,1347.52784 C271.663,1345.81108 271.57,1346.43983 274.055,1346.43983 L276.578,1346.43983 L276.578,1350.89419 C276.578,1352.02131 278.333,1352.52371 279.181,1352.52371 L280.3,1352.52371 C280.709,1352.52371 281.119,1352.25797 281.119,1351.82076 L281.119,1346.94322 C281.119,1345.82813 280.479,1346.43983 282.621,1346.43983 C283.03,1346.43983 283.439,1346.17308 283.439,1345.73587 C283.439,1343.25098 283.121,1344.11537 286.467,1344.11537 L290.674,1344.11537 L290.674,1344.63181 C290.674,1345.75793 292.429,1346.26133 293.277,1346.26133 L297.453,1346.26133 L297.453,1355.90409 C297.453,1357.03122 299.208,1357.53462 300.056,1357.53462 L301.558,1357.53462 L301.558,1398.96961 C301.476,1400.34041 301.339,1402.00403 301.558,1403.04391 L301.558,1404.74463 C301.558,1405.87076 303.312,1406.37415 304.161,1406.37415 L304.207,1406.37415 C304.617,1406.37415 305.026,1406.10842 305.026,1405.6702 L305.026,1399.78286 C305.026,1399.62041 305.016,1399.50108 305.004,1399.39579 L307.418,1399.39579 C307.827,1399.39579 308.236,1399.13005 308.236,1398.69183 C308.236,1394.05497 307.435,1395.10287 312.455,1395.10287 L326.329,1395.10287 C326.738,1395.10287 327.147,1394.83613 327.147,1394.39892 L327.147,1386.12897 C327.147,1381.87717 325.86,1382.75862 329.898,1382.75862 C330.307,1382.75862 330.717,1382.49188 330.717,1382.05466 C330.717,1375.9437 329.622,1377.03373 335.969,1377.03373 L346.693,1377.03373 L346.693,1380.4121 C346.693,1381.53923 348.448,1382.04163 349.296,1382.04163 L350.262,1382.04163 L350.262,1383.45355 C350.262,1384.57967 352.017,1385.08307 352.865,1385.08307 L355.792,1385.08307 L355.792,1416.01391 C355.792,1417.14003 357.547,1417.64343 358.395,1417.64343 L365.605,1417.64343 C366.021,1417.64343 366.414,1417.37769 366.423,1416.94048 C366.553,1410.73626 366.683,1404.53004 366.812,1398.32582 C366.902,1394.03591 366.991,1389.74601 367.08,1385.4551 C367.106,1384.24675 367.131,1383.03739 367.157,1381.82904 C367.171,1381.09099 367.373,1381.86413 369.038,1381.86413 C369.454,1381.86413 369.85,1381.5984 369.857,1381.16118 C369.878,1379.96386 369.899,1378.76754 369.92,1377.57122 L391.65,1377.57122 L391.65,1379.51762 C391.65,1380.64475 393.406,1381.14815 394.254,1381.14815 L395.194,1381.14815 C395.603,1381.14815 396.013,1380.88141 396.013,1380.4452 L396.013,1376.60253 C396.013,1375.32098 395.299,1375.95975 397.333,1375.95975 C397.742,1375.95975 398.152,1375.69401 398.152,1375.2568 L398.152,1366.27487 C398.152,1366.20367 398.141,1366.16256 398.136,1366.10741 C398.166,1366.11041 398.183,1366.12044 398.219,1366.12044 L418.056,1366.12044 L418.056,1371.46728 C418.056,1372.59341 419.811,1373.0968 420.66,1373.0968 L422.312,1373.0968 C422.721,1373.0968 423.131,1372.83006 423.131,1372.39285 C423.131,1369.4216 421.902,1368.62539 424.273,1368.62539 C424.683,1368.62539 425.092,1368.35966 425.092,1367.92244 L425.092,1352.88672 C425.092,1354.03089 435.044,1353.41919 437.475,1353.41919 C437.884,1353.41919 438.294,1353.15245 438.294,1352.71524 L438.294,1331.05112 C438.304,1331.05112 438.308,1331.05513 438.319,1331.05513 L468.722,1331.05513 L468.722,1370.03631 C468.722,1371.16344 470.476,1371.66684 471.325,1371.66684 L473.335,1371.66684 C473.744,1371.66684 474.154,1371.40009 474.154,1370.96388 C474.154,1369.57002 474.584,1365.94094 473.708,1365.94094 L479.58,1365.94094 C479.989,1365.94094 480.398,1365.6742 480.398,1365.23699 L480.398,1357.89161 C480.398,1357.70609 480.376,1357.58175 480.347,1357.48247 C480.445,1357.51155 480.567,1357.53462 480.749,1357.53462 L484.396,1357.53462 C484.806,1357.53462 485.215,1357.26788 485.215,1356.83066 L485.215,1350.86711 C485.215,1348.53865 484.453,1349.48327 487.429,1349.48327 C487.837,1349.48327 488.247,1349.21653 488.247,1348.78032 C488.247,1345.12317 487.562,1346.08384 491.71,1346.08384 C492.12,1346.08384 492.529,1345.8171 492.529,1345.37988 C492.529,1341.35371 491.227,1341.79092 495.206,1341.79092 L500.478,1341.79092 L500.478,1344.09532 C500.478,1345.22245 502.233,1345.72584 503.081,1345.72584 L505.294,1345.72584 L505.294,1346.95927 C505.294,1348.08539 507.049,1348.58879 507.897,1348.58879 L509.755,1348.58879 L509.755,1355.3656 C509.755,1356.49272 511.51,1356.99612 512.358,1356.99612 L514.037,1356.99612 L514.037,1369.14283 C514.037,1370.26896 515.792,1370.77235 516.64,1370.77235 L538.631,1370.77235 C539.04,1370.77235 539.45,1370.50662 539.45,1370.0694 C539.45,1367.58852 538.735,1368.2674 541.663,1368.2674 C542.073,1368.2674 542.482,1368.00166 542.482,1367.56445 L542.482,1364.78273 C542.482,1364.35454 542.439,1364.09783 542.387,1363.94741 C542.434,1363.96145 542.487,1363.97449 542.561,1363.97449 L561.848,1363.97449 L561.848,1366.63788 C561.848,1367.764 563.603,1368.2674 564.451,1368.2674 L565.24,1368.2674 L565.24,1399.55423 C565.24,1400.68136 566.995,1401.18475 567.843,1401.18475 L578.951,1401.18475 C579.359,1401.18475 579.769,1400.91902 579.769,1400.4818 L579.769,1371.5465 C579.769,1371.27675 579.758,1371.09525 579.745,1370.95085 L584.304,1370.95085 C584.713,1370.95085 585.122,1370.68411 585.122,1370.24689 C585.122,1368.00367 584.248,1366.29894 585.579,1366.29894 L606.451,1366.29894 L606.451,1368.96233 C606.451,1370.08946 608.205,1370.59285 609.054,1370.59285 L611.267,1370.59285 L611.267,1387.74846 C611.267,1388.87459 613.021,1389.37799 613.87,1389.37799 L618.913,1389.37799 C619.322,1389.37799 619.731,1389.11225 619.731,1388.67504 L619.731,1369.14383 C619.731,1369.00144 619.733,1368.90116 619.736,1368.80389 L622.303,1368.80389 C622.711,1368.80389 623.121,1368.53715 623.121,1368.09994 C623.121,1365.20891 622.011,1365.58395 624.801,1365.58395 C625.209,1365.58395 625.619,1365.31822 625.619,1364.881 L625.619,1361.98296 C625.619,1361.54775 625.59,1361.277 625.553,1361.11154 L640.703,1361.11154 L640.703,1362.34396 C640.703,1363.47109 642.457,1363.97449 643.306,1363.97449 L644.069,1363.97449 C644.478,1363.97449 644.888,1363.70775 644.888,1363.27053 C644.888,1358.9716 643.723,1359.68057 648.149,1359.68057 L655.333,1359.68057 L655.333,1364.66841 C655.333,1365.79554 657.088,1366.29894 657.936,1366.29894 L659.257,1366.29894 L659.257,1366.81537 C659.257,1367.9425 661.012,1368.44489 661.86,1368.44489 L663.897,1368.44489 L663.897,1388.64295 C663.897,1389.77008 665.652,1390.27247 666.501,1390.27247 L667.147,1390.27247 L667.147,1426.3887 C667.147,1427.51583 668.902,1428.01922 669.75,1428.01922 L671.187,1428.01922 C671.596,1428.01922 672.005,1427.75248 672.005,1427.31527 L672.005,1424.7662 C672.005,1424.43628 671.982,1424.23272 671.953,1424.0843 L677.43,1424.0843 C677.838,1424.0843 678.248,1423.81756 678.248,1423.38035 L678.248,1405.6341 C678.248,1406.73616 680.064,1406.19365 681.891,1406.19365 C682.299,1406.19365 682.709,1405.92792 682.709,1405.4907 L682.709,1370.36923 C682.709,1370.91575 682.742,1370.77235 684.849,1370.77235 L691.166,1370.77235 C691.575,1370.77235 691.984,1370.50662 691.984,1370.0694 L691.984,1363.03488 C691.984,1362.90352 691.974,1362.81226 691.964,1362.72101 L697.615,1362.72101 L697.615,1369.14283 C697.615,1370.26896 699.37,1370.77235 700.218,1370.77235 L713.315,1370.77235 L713.315,1404.20614 C713.315,1405.33327 715.07,1405.83666 715.918,1405.83666 L720.803,1405.83666 C721.212,1405.83666 721.622,1405.56992 721.622,1405.13271 L721.622,1372.65859 C721.622,1372.41391 721.607,1372.24444 721.587,1372.10706 C721.633,1372.1241 721.678,1372.14115 721.745,1372.14115 L734.993,1372.14115 C735.401,1372.14115 735.81,1371.87541 735.81,1371.4382 L735.81,1363.06496 C735.81,1361.02631 735.226,1361.89772 738.195,1361.89772 L752.271,1361.89772 L752.271,1368.23431 C752.271,1369.36144 754.026,1369.86383 754.875,1369.86383 L769.245,1369.86383 L769.245,1385.30869 C769.245,1386.43582 771,1386.93922 771.849,1386.93922 L776.994,1386.93922 C777.403,1386.93922 777.811,1386.67248 777.811,1386.23627 L777.811,1359.79389 C777.811,1359.42988 777.821,1359.20625 777.83,1359.05082 L780.967,1359.05082 C781.375,1359.05082 781.784,1358.78509 781.784,1358.34787 C781.784,1355.94821 782.228,1346.90411 781.34,1346.90411 L789.166,1346.90411 L789.166,1350.59034 C789.166,1351.71747 790.92,1352.22087 791.769,1352.22087 L805.624,1352.22087 L805.624,1390.42991 C805.624,1391.55703 807.378,1392.06043 808.227,1392.06043 L812.184,1392.06043 C812.594,1392.06043 813.002,1391.79369 813.002,1391.35748 L813.002,1380.81923 C813.002,1379.02425 813.383,1377.83395 812.558,1377.83395 L817.291,1377.83395 C817.7,1377.83395 818.109,1377.56721 818.109,1377.131 L818.109,1367.85626 C818.109,1366.08234 818.495,1364.74362 817.665,1364.74362 L821.832,1364.74362 C822.24,1364.74362 822.649,1364.47688 822.649,1364.03967 L822.649,1357.50253 C822.649,1358.31177 824.764,1357.91266 826.446,1357.91266 L838.373,1357.91266 L838.373,1391.00149 C838.373,1392.12762 840.128,1392.63101 840.977,1392.63101 L846.806,1392.63101 C847.215,1392.63101 847.623,1392.36427 847.623,1391.92806 L847.623,1333.49189 C847.623,1333.31641 847.626,1333.18203 847.629,1333.06972 L866.355,1333.06972 L866.355,1377.91016 C866.355,1379.03729 868.11,1379.54069 868.96,1379.54069 L874.05,1379.54069 C874.458,1379.54069 874.867,1379.27495 874.867,1378.83774 L874.867,1355.39067 C874.867,1354.68771 874.76,1354.38287 874.692,1354.26655 C874.791,1354.35479 875.056,1354.49819 875.665,1354.49819 L902.681,1354.49819 L902.681,1388.72317 C902.681,1389.8503 904.435,1390.35369 905.284,1390.35369 L910.922,1390.35369 L910.922,1397.73217 C910.922,1398.8593 912.678,1399.3627 913.526,1399.3627 L917.753,1399.3627 C918.162,1399.3627 918.57,1399.09596 918.57,1398.65874 L918.57,1358.41506 C918.57,1359.65149 920.375,1359.05082 922.293,1359.05082 C922.702,1359.05082 923.111,1358.78509 923.111,1358.34787 C923.111,1353.35502 921.505,1353.36003 926.266,1353.36003 C926.675,1353.36003 927.084,1353.09329 927.084,1352.65608 L927.084,1346.55916 C927.084,1347.2581 929.45,1346.90411 931.073,1346.90411 L941.842,1346.90411 L941.842,1352.29808 C941.842,1353.42421 943.597,1353.92761 944.446,1353.92761 L947.518,1353.92761 L947.518,1376.772 C947.518,1377.89813 949.273,1378.40153 950.122,1378.40153 L966.814,1378.40153 L966.814,1404.6594 C966.814,1405.78652 968.569,1406.28992 969.419,1406.28992 L975.257,1406.28992 C975.665,1406.28992 976.074,1406.02318 976.074,1405.58597 L976.074,1396.46265 C976.074,1395.93117 976.043,1395.64237 976.008,1395.47591 L988.133,1395.47591 C988.541,1395.47591 988.95,1395.21017 988.95,1394.77296 L988.95,1364.19811 C988.95,1364.16903 988.944,1364.15699 988.943,1364.13192 C989.032,1364.15499 989.141,1364.17204 989.284,1364.17204 L994.375,1364.17204 C994.784,1364.17204 995.193,1363.9063 995.193,1363.46908 L995.193,1355.09484 C995.193,1354.41295 995.149,1354.07903 995.106,1353.92259 C995.112,1353.92359 995.113,1353.92761 995.12,1353.92761 L998.348,1353.92761 C998.757,1353.92761 999.165,1353.66187 999.165,1353.22465 L999.165,1347.29921 C999.165,1347.13375 999.155,1347.01041 999.143,1346.90411 L1002.321,1346.90411 C1002.73,1346.90411 1003.14,1346.63838 1003.14,1346.20116 L1003.14,1324.60022 C1003.14,1324.4488 1003.125,1324.33548 1003.105,1324.24122 C1003.23,1324.29236 1003.394,1324.33348 1003.66,1324.33348 L1009.385,1324.33348 L1009.385,1345.27459 C1009.385,1346.40172 1011.14,1346.90411 1011.989,1346.90411 L1015.059,1346.90411 L1015.059,1354.5744 C1015.059,1355.70153 1016.814,1356.20493 1017.664,1356.20493 L1019.034,1356.20493 L1019.034,1363.1131 C1019.034,1364.24022 1020.789,1364.74362 1021.638,1364.74362 L1023.574,1364.74362 L1023.574,1394.41497 C1023.574,1395.54209 1025.329,1396.04549 1026.178,1396.04549 L1040.915,1396.04549 C1041.324,1396.04549 1041.733,1395.77875 1041.733,1395.34154 L1041.733,1383.55382 C1041.733,1378.24409 1040.579,1379.54069 1046.023,1379.54069 C1046.433,1379.54069 1046.842,1379.27495 1046.842,1378.83774 L1046.842,1360.18798 L1049.429,1360.18798 C1049.837,1360.18798 1050.246,1359.92124 1050.246,1359.48503 L1050.246,1351.89998 C1050.246,1349.65074 1049.358,1350.51413 1051.92,1350.51413 L1063.872,1350.51413 L1063.872,1358.55846 C1063.872,1359.68458 1065.627,1360.18798 1066.476,1360.18798 L1068.412,1360.18798 L1068.412,1380.18548 C1068.412,1381.3126 1070.167,1381.816 1071.016,1381.816 L1072.386,1381.816 L1072.386,1404.6594 C1072.386,1405.78652 1074.141,1406.28992 1074.99,1406.28992 L1086.889,1406.28992 C1087.298,1406.28992 1087.707,1406.02318 1087.707,1405.58597 L1087.707,1380.31985 C1087.707,1379.93979 1087.692,1379.70715 1087.673,1379.54069 L1093.385,1379.54069 L1093.385,1393.84639 C1093.385,1394.97352 1095.14,1395.47591 1095.988,1395.47591 L1099.945,1395.47591 C1100.354,1395.47591 1100.763,1395.21017 1100.763,1394.77296 C1100.763,1393.03012 1101.194,1388.07838 1100.318,1388.07838 L1120.629,1388.07838 L1120.629,1417.18115 C1120.629,1418.30928 1122.384,1418.81167 1123.232,1418.81167 L1127.944,1418.81167 C1128.353,1418.81167 1128.763,1418.54593 1128.763,1418.10872 L1128.763,1411.78417 C1128.763,1409.35443 1127.834,1410.27398 1130.594,1410.27398 C1131.003,1410.27398 1131.411,1410.00724 1131.411,1409.57103 L1131.411,1404.51399 C1131.411,1402.11333 1130.41,1402.87545 1132.654,1402.87545 L1140.494,1402.87545 L1140.494,1411.48935 C1140.494,1412.61648 1142.249,1413.11988 1143.098,1413.11988 L1144.214,1413.11988 C1144.622,1413.11988 1145.031,1412.85414 1145.031,1412.41692 L1145.031,1389.79715 C1145.031,1388.29398 1145.208,1388.09643 1144.917,1388.07838 L1149.008,1388.07838 L1149.008,1400.67734 C1149.008,1401.80447 1150.763,1402.30687 1151.612,1402.30687 L1153.295,1402.30687 C1153.703,1402.30687 1154.112,1402.04113 1154.112,1401.60392 C1154.112,1399.77685 1153.729,1397.75223 1154.205,1397.75223" id="Fill-1"></path>
        </g>
    </g>
</svg>