<svg id="Camada_1" data-name="Camada 1" xmlns="http://www.w3.org/2000/svg" viewBox="0 0 21.91 18.92"><defs><style>.cls-1{fill:none;stroke:#62abd9;stroke-miterlimit:10;}.cls-2{fill:#62abd9;}</style></defs><title>list</title><polyline class="cls-1" points="0.4 2.02 2.22 0.9 2.22 5.34"/><path class="cls-1" d="M5.44,13.25S8.82,12.63,6.52,16L5.44,17.52H8" transform="translate(-4.47 -5.35)"/><path class="cls-1" d="M5.78,19.75a4.3,4.3,0,0,1,1.68.06c1.11.38.15,1.48-.56,1.84.37,0,1.36.29,1.29.82a.64.64,0,0,1-.12.26,2.46,2.46,0,0,1-1,.91,1.43,1.43,0,0,1-1.3,0" transform="translate(-4.47 -5.35)"/><rect class="cls-2" x="5.78" y="2.52" width="16.13" height="0.59"/><rect class="cls-2" x="5.78" y="9.21" width="16.13" height="0.8"/><rect class="cls-2" x="5.53" y="15.71" width="16.13" height="1.06"/><rect class="cls-2" x="5.59" y="9.21" width="16.13" height="1.06"/><rect class="cls-2" x="5.72" y="2.45" width="16.13" height="1.06"/></svg>