<?xml version="1.0" encoding="UTF-8"?>
<svg width="130px" height="35px" viewBox="0 0 130 35" version="1.1" xmlns="http://www.w3.org/2000/svg" xmlns:xlink="http://www.w3.org/1999/xlink">
    <!-- Generator: Sketch 45.2 (43514) - http://www.bohemiancoding.com/sketch -->
    <title>logo</title>
    <desc>Created with Sketch.</desc>
    <defs>
        <polygon id="path-1" points="22.8872 26 0.6362 26 0.6362 0.3764 22.8872 0.3764 22.8872 26"></polygon>
        <polygon id="path-3" points="0 34.665 129.199 34.665 129.199 0 0 0"></polygon>
    </defs>
    <g id="site" stroke="none" stroke-width="1" fill="none" fill-rule="evenodd">
        <g id="sisSofia" transform="translate(-124.000000, -21.000000)">
            <g id="Menu">
                <g id="logo" transform="translate(109.000000, 13.000000)">
                    <g id="Page-1" transform="translate(15.000000, 8.000000)">
                        <path d="M0,29.2285 L2.409,29.2285 C2.636,30.2275 3.206,31.0345 4.123,31.6465 C5.039,32.2595 6.163,32.5655 7.495,32.5655 C8.935,32.5655 10.121,32.2385 11.056,31.5835 C11.989,30.9295 12.456,30.0915 12.456,29.0685 C12.456,28.3665 12.222,27.7625 11.752,27.2565 C11.281,26.7505 10.499,26.3145 9.405,25.9455 L6.854,25.0885 C5.342,24.5775 4.227,23.9315 3.507,23.1525 C2.787,22.3735 2.428,21.3945 2.428,20.2165 C2.428,18.5985 3.091,17.2755 4.417,16.2465 C5.743,15.2165 7.412,14.7025 9.423,14.7025 C11.338,14.7025 12.923,15.1665 14.179,16.0945 C15.434,17.0225 16.168,18.2485 16.383,19.7705 L14.063,19.7705 C13.884,18.8545 13.363,18.1145 12.501,17.5485 C11.639,16.9845 10.589,16.7015 9.352,16.7015 C8.043,16.7015 6.957,17.0165 6.095,17.6475 C5.231,18.2775 4.801,19.0625 4.801,20.0025 C4.801,20.6805 5.054,21.2665 5.56,21.7605 C6.064,22.2535 6.847,22.6795 7.906,23.0365 L10.208,23.8035 C11.838,24.3635 13.021,25.0435 13.759,25.8465 C14.497,26.6505 14.865,27.6695 14.865,28.9075 C14.865,30.5485 14.157,31.9025 12.742,32.9665 C11.326,34.0325 9.542,34.5645 7.389,34.5645 C5.33,34.5645 3.617,34.0715 2.249,33.0825 C0.881,32.0955 0.131,30.8105 0,29.2285 Z" id="Fill-1" fill="#FEFEFE"></path>
                        <path d="M23.0518,10.2324 C22.7118,10.5714 22.3048,10.7414 21.8288,10.7414 C21.3528,10.7414 20.9458,10.5714 20.6068,10.2324 C20.2678,9.8934 20.0978,9.4804 20.0978,8.9924 C20.0978,8.5164 20.2678,8.1084 20.6068,7.7694 C20.9458,7.4304 21.3528,7.2604 21.8288,7.2604 C22.3048,7.2604 22.7118,7.4304 23.0518,7.7694 C23.3908,8.1084 23.5598,8.5164 23.5598,8.9924 C23.5598,9.4804 23.3908,9.8934 23.0518,10.2324 L23.0518,10.2324 Z M15.3158,34.2434 L19.4378,15.0234 L21.8118,15.0234 L17.7068,34.2434 L15.3158,34.2434 Z" id="Fill-3" fill="#FEFEFE"></path>
                        <path d="M20.8857,29.2285 L23.2947,29.2285 C23.5217,30.2275 24.0917,31.0345 25.0087,31.6465 C25.9247,32.2595 27.0487,32.5655 28.3807,32.5655 C29.8207,32.5655 31.0067,32.2385 31.9417,31.5835 C32.8747,30.9295 33.3417,30.0915 33.3417,29.0685 C33.3417,28.3665 33.1077,27.7625 32.6377,27.2565 C32.1667,26.7505 31.3847,26.3145 30.2907,25.9455 L27.7397,25.0885 C26.2277,24.5775 25.1127,23.9315 24.3927,23.1525 C23.6727,22.3735 23.3137,21.3945 23.3137,20.2165 C23.3137,18.5985 23.9767,17.2755 25.3027,16.2465 C26.6287,15.2165 28.2977,14.7025 30.3087,14.7025 C32.2237,14.7025 33.8087,15.1665 35.0647,16.0945 C36.3197,17.0225 37.0537,18.2485 37.2687,19.7705 L34.9487,19.7705 C34.7697,18.8545 34.2487,18.1145 33.3867,17.5485 C32.5247,16.9845 31.4747,16.7015 30.2377,16.7015 C28.9287,16.7015 27.8427,17.0165 26.9807,17.6475 C26.1167,18.2775 25.6867,19.0625 25.6867,20.0025 C25.6867,20.6805 25.9397,21.2665 26.4457,21.7605 C26.9497,22.2535 27.7327,22.6795 28.7917,23.0365 L31.0937,23.8035 C32.7237,24.3635 33.9067,25.0435 34.6447,25.8465 C35.3827,26.6505 35.7507,27.6695 35.7507,28.9075 C35.7507,30.5485 35.0427,31.9025 33.6277,32.9665 C32.2117,34.0325 30.4277,34.5645 28.2747,34.5645 C26.2157,34.5645 24.5027,34.0715 23.1347,33.0825 C21.7667,32.0955 21.0167,30.8105 20.8857,29.2285" id="Fill-5" fill="#FEFEFE"></path>
                        <path d="M39.6934,16.7236 C39.6934,15.4116 39.9594,14.2526 40.4904,13.2446 C41.0204,12.2386 41.7434,11.4386 42.6564,10.8446 C43.5704,10.2506 44.5964,9.8026 45.7364,9.4976 C46.8764,9.1936 48.1024,9.0406 49.4144,9.0406 C52.3184,9.0406 54.5894,9.7246 56.2294,11.0906 C57.8694,12.4566 58.6894,14.2806 58.6894,16.5596 L53.7474,16.5596 C53.6534,15.5766 53.2554,14.7406 52.5524,14.0536 C51.8494,13.3666 50.7564,13.0226 49.2734,13.0226 C47.9774,13.0226 46.9434,13.3036 46.1704,13.8666 C45.3974,14.4276 45.0104,15.2016 45.0104,16.1846 C45.0104,16.7626 45.1634,17.2546 45.4674,17.6606 C45.7714,18.0666 46.2754,18.4026 46.9774,18.6676 C47.6804,18.9336 48.2504,19.1206 48.6874,19.2296 C49.1254,19.3386 49.8364,19.4796 50.8194,19.6516 C51.0384,19.6986 51.2014,19.7296 51.3114,19.7446 C52.5764,19.9636 53.6534,20.2256 54.5434,20.5296 C55.4334,20.8336 56.2684,21.2446 57.0494,21.7586 C57.8304,22.2746 58.4204,22.9426 58.8174,23.7616 C59.2154,24.5816 59.4154,25.5536 59.4154,26.6776 C59.4154,29.1926 58.4934,31.1516 56.6514,32.5566 C54.8084,33.9616 52.2874,34.6646 49.0864,34.6646 C46.0414,34.6646 43.6364,34.0046 41.8724,32.6856 C40.1074,31.3666 39.2254,29.5976 39.2254,27.3806 L44.6124,27.3806 C44.7374,28.3796 45.2214,29.1766 46.0644,29.7696 C46.9084,30.3636 48.0244,30.6596 49.4144,30.6596 C50.9134,30.6596 52.0564,30.3476 52.8444,29.7226 C53.6334,29.0986 54.0284,28.3176 54.0284,27.3806 C54.0284,26.8186 53.8914,26.3416 53.6184,25.9526 C53.3444,25.5616 52.9224,25.2446 52.3534,25.0026 C51.7834,24.7616 51.2174,24.5666 50.6554,24.4176 C50.0924,24.2696 49.3754,24.1096 48.5004,23.9376 C48.2194,23.8906 48.0084,23.8516 47.8684,23.8206 C46.6344,23.5546 45.5684,23.2626 44.6714,22.9426 C43.7724,22.6216 42.9254,22.1926 42.1304,21.6546 C41.3334,21.1156 40.7274,20.4326 40.3144,19.6046 C39.9004,18.7776 39.6934,17.8166 39.6934,16.7236" id="Fill-7" fill="#FEFEFE"></path>
                        <g id="Group-11" transform="translate(60.000000, 8.665000)">
                            <mask id="mask-2" fill="white">
                                <use xlink:href="#path-1"></use>
                            </mask>
                            <g id="Clip-10"></g>
                            <path d="M11.7852,4.7324 C9.9582,4.7324 8.5722,5.4124 7.6282,6.7704 C6.6822,8.1284 6.2112,9.9404 6.2112,12.2044 L6.2112,14.1254 C6.2112,16.3584 6.6822,18.1614 7.6282,19.5354 C8.5722,20.9094 9.9582,21.5964 11.7852,21.5964 C13.5972,21.5964 14.9712,20.9094 15.9072,19.5354 C16.8442,18.1614 17.3122,16.3584 17.3122,14.1254 L17.3122,12.2044 C17.3122,9.9404 16.8442,8.1284 15.9072,6.7704 C14.9712,5.4124 13.5972,4.7324 11.7852,4.7324 M3.5872,3.6554 C5.5552,1.4684 8.2872,0.3764 11.7852,0.3764 C15.2822,0.3764 18.0072,1.4644 19.9592,3.6434 C21.9112,5.8214 22.8872,8.6604 22.8872,12.1574 L22.8872,14.0784 C22.8872,17.7004 21.9192,20.5934 19.9822,22.7554 C18.0472,24.9194 15.3132,26.0004 11.7852,26.0004 C8.2562,26.0004 5.5152,24.9194 3.5632,22.7554 C1.6122,20.5934 0.6362,17.7084 0.6362,14.1014 L0.6362,12.1804 C0.6362,8.6834 1.6202,5.8414 3.5872,3.6554" id="Fill-9" fill="#FEFEFE" mask="url(#mask-2)"></path>
                        </g>
                        <path d="M86.3105,34.2431 L86.3105,13.8431 L82.8205,13.8431 L82.8205,9.4631 L86.3105,9.4631 L86.3105,6.9801 C86.3105,4.5441 86.9545,2.7721 88.2425,1.6631 C89.5305,0.5551 91.5725,0.0001 94.3675,0.0001 C95.3035,0.0001 96.1165,0.0551 96.8025,0.1641 L96.8025,4.2391 C96.3345,4.1781 95.8585,4.1451 95.3735,4.1451 C94.1095,4.1451 93.1845,4.3911 92.5985,4.8841 C92.0135,5.3761 91.7205,6.2301 91.7205,7.4481 L91.7205,9.4631 L96.5225,9.4631 L96.5225,13.8431 L91.8145,13.8431 L91.8145,34.2431 L86.3105,34.2431 Z" id="Fill-12" fill="#FEFEFE"></path>
                        <mask id="mask-4" fill="white">
                            <use xlink:href="#path-3"></use>
                        </mask>
                        <g id="Clip-15"></g>
                        <path d="M99.804,34.243 L105.308,34.243 L105.308,9.463 L99.804,9.463 L99.804,34.243 Z M100.271,5.551 C99.647,4.974 99.335,4.248 99.335,3.373 C99.335,2.499 99.647,1.772 100.271,1.194 C100.896,0.617 101.653,0.328 102.544,0.328 C103.449,0.328 104.215,0.617 104.839,1.194 C105.464,1.772 105.776,2.499 105.776,3.373 C105.776,4.248 105.464,4.974 104.839,5.551 C104.215,6.129 103.449,6.418 102.544,6.418 C101.653,6.418 100.896,6.129 100.271,5.551 L100.271,5.551 Z" id="Fill-14" fill="#FEFEFE" mask="url(#mask-4)"></path>
                        <path d="M118.6123,30.4726 C120.0643,30.4726 121.2783,30.0626 122.2553,29.2426 C123.2303,28.4226 123.7183,27.3726 123.7183,26.0926 L123.7183,23.3986 L118.5653,23.3986 C117.1603,23.3986 116.0943,23.7026 115.3683,24.3126 C114.6423,24.9206 114.2793,25.7416 114.2793,26.7716 C114.2793,27.9576 114.7013,28.8716 115.5443,29.5116 C116.3873,30.1526 117.4103,30.4726 118.6123,30.4726 L118.6123,30.4726 Z M123.7423,31.2216 C122.4613,33.4866 120.1743,34.6186 116.8793,34.6186 C114.4593,34.6186 112.4993,33.9386 111.0003,32.5796 C109.5013,31.2216 108.7523,29.4036 108.7523,27.1226 C108.7523,24.8736 109.5123,23.1066 111.0353,21.8176 C112.5573,20.5296 114.7243,19.8776 117.5353,19.8626 L123.7183,19.8626 L123.7183,17.5666 C123.7183,16.2076 123.3363,15.1616 122.5703,14.4276 C121.8053,13.6946 120.7203,13.3266 119.3153,13.3266 C117.9873,13.3266 116.9333,13.6516 116.1533,14.2996 C115.3723,14.9476 114.9423,15.8106 114.8653,16.8876 L109.6653,16.8876 C109.7123,15.7946 109.9343,14.7906 110.3333,13.8776 C110.7303,12.9636 111.3083,12.1406 112.0653,11.4076 C112.8233,10.6726 113.8303,10.0996 115.0873,9.6856 C116.3433,9.2716 117.7933,9.0646 119.4313,9.0646 C121.3373,9.0646 123.0083,9.3616 124.4443,9.9536 C125.8813,10.5476 127.0323,11.4816 127.8993,12.7536 C128.7653,14.0266 129.1993,15.5766 129.1993,17.4026 L129.1993,34.2436 L123.9523,34.2436 L123.9523,31.2216 L123.7423,31.2216 Z" id="Fill-16" fill="#FEFEFE" mask="url(#mask-4)"></path>
                    </g>
                </g>
            </g>
        </g>
    </g>
</svg>