<?xml version="1.0" encoding="UTF-8"?>
<svg width="31px" height="27px" viewBox="0 0 31 27" version="1.1" xmlns="http://www.w3.org/2000/svg" xmlns:xlink="http://www.w3.org/1999/xlink">
    <!-- Generator: Sketch 45.2 (43514) - http://www.bohemiancoding.com/sketch -->
    <title>mangue_simbol</title>
    <desc>Created with Sketch.</desc>
    <defs>
        <polygon id="path-1" points="2.85600545 6 0.1206 6 0.1206 0.9383 2.85600545 0.9383 2.85600545 6"></polygon>
        <polygon id="path-3" points="3.0759 6 0.3409335 6 0.3409335 0.9381 3.0759 0.9381 3.0759 6"></polygon>
        <polygon id="path-5" points="7.775 0.0343871674 7.775 13.7704734 0.439721974 13.7704734 0.439721974 0.0343871674 7.775 0.0343871674"></polygon>
    </defs>
    <g id="site" stroke="none" stroke-width="1" fill="none" fill-rule="evenodd" opacity="0.77">
        <g id="sisSofia" transform="translate(-1237.000000, -4537.000000)">
            <g id="footer" transform="translate(0.000000, 4517.000000)">
                <g id="mangue_simbol" transform="translate(1237.000000, 19.000000)">
                    <g id="Group-3" transform="translate(23.000000, 21.965600)">
                        <mask id="mask-2" fill="white">
                            <use xlink:href="#path-1"></use>
                        </mask>
                        <g id="Clip-2"></g>
                        <path d="M1.8116,0.9883 C1.8066,0.9853 1.8026,0.9823 1.7976,0.9803 C1.7496,0.9533 1.6936,0.9383 1.6346,0.9383 C1.5086,0.9383 1.3986,1.0073 1.3406,1.1093 C1.3356,1.1183 1.3316,1.1263 1.3276,1.1353 C1.0196,1.7273 0.6346,2.2673 0.1866,2.7453 C0.1826,2.7493 0.1786,2.7543 0.1746,2.7583 C0.1406,2.7973 0.1206,2.8473 0.1206,2.9033 C0.1206,2.9673 0.1486,3.0253 0.1916,3.0653 C0.1976,3.0703 0.2036,3.0753 0.2096,3.0803 C0.3326,3.1833 0.4456,3.3053 0.5406,3.4443 L0.8086,3.8323 C1.2356,4.4493 1.4856,5.1353 1.5686,5.8293 C1.5936,6.0373 1.8866,6.0633 1.9536,5.8643 L2.2436,4.9983 L2.7466,3.4933 C3.0006,2.7313 2.7996,1.9163 2.2756,1.3603 C2.1406,1.2173 1.9866,1.0913 1.8116,0.9883" id="Fill-1" fill="#FEFEFE" mask="url(#mask-2)"></path>
                    </g>
                    <path d="M29.8566,13.1287 C29.2606,13.8447 28.4846,14.4327 27.5596,14.8157 L26.9806,15.0557 C26.7346,15.1577 26.4826,15.2157 26.2316,15.2357 C26.0116,15.2527 25.8416,15.4387 25.8246,15.6587 L25.6546,17.7747 C25.6176,18.2447 25.9606,18.6607 26.4296,18.7117 C26.5246,18.7227 26.6196,18.7277 26.7136,18.7287 C26.8966,18.7297 27.0766,18.7127 27.2516,18.6807 C28.2006,18.5067 29.0096,17.8547 29.3726,16.9377 C29.4156,16.8267 29.4556,16.7147 29.4856,16.5977 L30.0526,14.3797 L30.3126,13.3667 C30.3816,13.0967 30.0356,12.9137 29.8566,13.1287" id="Fill-4" fill="#FEFEFE"></path>
                    <path d="M26.3868,19.4734 C26.3048,19.4424 26.2218,19.4144 26.1358,19.3924 C26.0008,19.3574 25.8598,19.3604 25.7408,19.4004 C25.7238,19.4064 25.7088,19.4114 25.6958,19.4164 C25.6748,19.4234 25.6558,19.4324 25.6368,19.4424 C25.6178,19.4524 25.6048,19.4604 25.5958,19.4694 C25.5418,19.5104 25.5008,19.5674 25.4798,19.6324 L25.4728,19.6554 L24.8548,21.7874 C24.8418,21.8334 24.8298,21.8604 24.8248,21.8904 C24.8248,21.8914 24.8238,21.8924 24.8238,21.8944 C24.8228,21.8994 24.8218,21.9044 24.8218,21.9094 C24.8208,21.9124 24.8208,21.9174 24.8208,21.9224 C24.8198,21.9244 24.8198,21.9264 24.8198,21.9284 L24.8198,21.9364 L24.8198,21.9454 L24.8198,21.9494 C24.8248,22.0274 24.8688,22.0944 24.9348,22.1294 C24.9418,22.1324 24.9478,22.1364 24.9538,22.1394 C25.1368,22.2294 25.3098,22.3474 25.4668,22.4944 L25.8228,22.8304 L25.8588,22.8644 C26.4848,23.4524 26.9288,24.1604 27.1898,24.9164 C27.2678,25.1434 27.6018,25.1034 27.6278,24.8644 L27.7758,23.5404 L27.9068,22.3734 L27.9468,22.0194 C28.0718,20.9034 27.4168,19.8614 26.3868,19.4734" id="Fill-6" fill="#FEFEFE"></path>
                    <g id="Group-10" transform="translate(4.000000, 21.965600)">
                        <mask id="mask-4" fill="white">
                            <use xlink:href="#path-3"></use>
                        </mask>
                        <g id="Clip-9"></g>
                        <path d="M3.0099,2.7451 C2.5629,2.2671 2.1769,1.7271 1.8699,1.1361 C1.8659,1.1261 1.8619,1.1181 1.8569,1.1091 C1.7989,1.0071 1.6889,0.9381 1.5629,0.9381 C1.5029,0.9381 1.4479,0.9531 1.3999,0.9801 C1.3949,0.9821 1.3909,0.9851 1.3859,0.9881 C1.2109,1.0911 1.0559,1.2181 0.9209,1.3601 C0.3969,1.9171 0.1969,2.7311 0.4499,3.4931 L0.9539,4.9971 L1.2439,5.8641 C1.3109,6.0631 1.6039,6.0371 1.6279,5.8291 C1.7119,5.1361 1.9619,4.4491 2.3889,3.8321 L2.6559,3.4441 C2.7519,3.3061 2.8639,3.1831 2.9879,3.0801 L3.0049,3.0651 C3.0489,3.0251 3.0759,2.9671 3.0759,2.9031 C3.0759,2.8481 3.0559,2.7971 3.0229,2.7581 C3.0189,2.7541 3.0149,2.7491 3.0099,2.7451" id="Fill-8" fill="#FEFEFE" mask="url(#mask-4)"></path>
                    </g>
                    <path d="M3.3165,18.4675 C3.4605,18.4775 3.6055,18.4755 3.7535,18.4585 C4.1585,18.4145 4.4545,18.0565 4.4215,17.6495 L4.2755,15.8215 C4.2595,15.6315 4.1135,15.4715 3.9225,15.4565 C3.7075,15.4395 3.4895,15.3895 3.2775,15.3015 L2.7765,15.0935 C1.9775,14.7635 1.3075,14.2555 0.7935,13.6375 C0.6385,13.4505 0.3385,13.6095 0.3985,13.8425 L0.5665,14.4985 L1.1135,16.6325 C1.1485,16.7685 1.1955,16.8985 1.2505,17.0225 C1.5725,17.7455 2.2245,18.2615 2.9875,18.4205 C3.0945,18.4435 3.2055,18.4595 3.3165,18.4675" id="Fill-11" fill="#FEFEFE"></path>
                    <path d="M4.7306,22.4949 C4.8876,22.3479 5.0606,22.2289 5.2436,22.1399 C5.2496,22.1369 5.2556,22.1329 5.2626,22.1299 C5.3276,22.0949 5.3736,22.0269 5.3766,21.9489 C5.3776,21.9469 5.3776,21.9459 5.3776,21.9449 L5.3776,21.9359 C5.3776,21.9329 5.3776,21.9309 5.3766,21.9289 L5.3766,21.9229 C5.3766,21.9179 5.3766,21.9129 5.3766,21.9089 C5.3756,21.9039 5.3756,21.8989 5.3746,21.8939 C5.3736,21.8919 5.3736,21.8909 5.3736,21.8909 C5.3676,21.8599 5.3556,21.8339 5.3416,21.7879 L4.7236,19.6549 L4.7176,19.6329 C4.6966,19.5669 4.6556,19.5109 4.6016,19.4699 C4.5916,19.4609 4.5796,19.4519 4.5606,19.4419 C4.5426,19.4319 4.5226,19.4239 4.5016,19.4169 C4.4886,19.4109 4.4726,19.4059 4.4566,19.3999 C4.3376,19.3599 4.1966,19.3569 4.0606,19.3919 C3.9746,19.4149 3.8906,19.4429 3.8096,19.4739 C2.7806,19.8619 2.1266,20.9039 2.2516,22.0189 L2.2906,22.3729 L2.4206,23.5399 L2.5696,24.8639 C2.5956,25.1029 2.9296,25.1429 3.0076,24.9169 C3.2686,24.1609 3.7126,23.4529 4.3386,22.8639 L4.3746,22.8309 L4.7306,22.4949 Z" id="Fill-13" fill="#FEFEFE"></path>
                    <path d="M23.0304,8.7976 C23.3004,9.4466 24.0434,9.7546 24.6924,9.4856 C24.8734,9.4106 25.0264,9.2976 25.1494,9.1606 C25.4674,8.8086 25.5744,8.2916 25.3804,7.8236 L23.5784,3.4756 C23.4804,3.2386 23.3184,3.0476 23.1224,2.9136 C22.7794,2.6796 22.3294,2.6166 21.9174,2.7876 C21.2684,3.0566 20.9604,3.8006 21.2284,4.4486 L23.0304,8.7976 Z" id="Fill-15" fill="#FEFEFE"></path>
                    <g id="Group-19" transform="translate(23.000000, 0.965600)">
                        <mask id="mask-6" fill="white">
                            <use xlink:href="#path-5"></use>
                        </mask>
                        <g id="Clip-18"></g>
                        <path d="M7.3419,5.9404 L5.4469,1.3674 C5.0239,0.3454 3.9069,-0.1766 2.8689,0.1144 C2.7859,0.1374 2.7049,0.1644 2.6239,0.1984 C2.3639,0.3054 2.1379,0.4594 1.9469,0.6434 C1.3299,1.2424 1.1059,2.1784 1.4539,3.0214 L2.9659,6.6684 C3.2469,7.3484 3.0959,8.0984 2.6409,8.6174 C2.4579,8.8264 2.2279,8.9984 1.9539,9.1114 C0.7029,9.6294 0.1089,11.0634 0.6269,12.3154 C0.7169,12.5314 0.8359,12.7254 0.9759,12.8984 C1.0749,13.0204 1.1849,13.1304 1.3039,13.2294 C1.9549,13.7664 2.8739,13.9364 3.7079,13.5904 L4.2699,13.3584 C5.8059,12.7214 6.9149,11.4884 7.4379,10.0384 C7.9009,8.7534 7.9049,7.3004 7.3419,5.9404" id="Fill-17" fill="#FEFEFE" mask="url(#mask-6)"></path>
                    </g>
                    <path d="M3.0275,14.6697 L3.5115,14.8697 C4.3795,15.2297 5.3515,14.9427 5.8995,14.2347 C5.9945,14.1127 6.0755,13.9797 6.1415,13.8337 C6.1525,13.8117 6.1645,13.7907 6.1735,13.7687 C6.6215,12.6877 6.1075,11.4477 5.0275,11.0007 C4.5425,10.7997 4.2095,10.3907 4.0855,9.9187 C3.9985,9.5897 4.0125,9.2307 4.1535,8.8907 L5.4585,5.7407 C5.8525,4.7887 5.4005,3.6967 4.4485,3.3027 C4.1335,3.1717 3.8045,3.1357 3.4905,3.1777 C3.4665,3.1807 3.4435,3.1847 3.4215,3.1887 C2.8095,3.2927 2.2645,3.6967 2.0095,4.3127 L0.3745,8.2617 C-0.0015,9.1697 -0.0835,10.1247 0.0815,11.0237 C0.3735,12.6037 1.4325,14.0087 3.0275,14.6697" id="Fill-20" fill="#FEFEFE"></path>
                    <path d="M18.1476,12.574 C18.1916,12.582 18.2366,12.587 18.2836,12.587 C18.7196,12.587 19.0736,12.233 19.0736,11.797 L19.0736,8.983 C19.0736,8.547 18.7196,8.193 18.2836,8.193 C17.8466,8.193 17.4936,8.547 17.4936,8.983 L17.4936,10.459 L17.4936,11.797 C17.4936,12.186 17.7766,12.511 18.1476,12.574" id="Fill-22" fill="#FEFEFE"></path>
                    <path d="M24.8019,18.8875 C25.2509,17.3365 24.8199,15.7875 23.8549,14.7005 C23.6639,14.4855 23.4539,14.2875 23.2249,14.1135 C22.4869,13.5485 21.5599,13.2065 20.5329,13.2065 L18.2799,13.2065 L17.6789,13.2065 L12.5179,13.2065 L11.9159,13.2065 L9.6689,13.2065 C8.6419,13.2065 7.7139,13.5485 6.9759,14.1145 C6.7399,14.2935 6.5259,14.4965 6.3319,14.7175 C5.3779,15.8045 4.9529,17.3455 5.4009,18.8875 L6.1909,21.6145 C7.0069,24.4285 9.5839,26.3655 12.5149,26.3655 L14.5659,26.3655 L15.6299,26.3655 L17.6879,26.3655 C20.6179,26.3655 23.1959,24.4285 24.0119,21.6145 L24.8019,18.8875 Z" id="Fill-24" fill="#FEFEFE"></path>
                    <path d="M11.922,12.5867 C11.965,12.5867 12.007,12.5817 12.048,12.5757 C12.424,12.5157 12.713,12.1907 12.713,11.7967 L12.713,10.4347 L12.713,10.0037 C12.713,9.5667 12.359,9.2137 11.922,9.2137 C11.486,9.2137 11.132,9.5667 11.132,10.0037 L11.132,11.7967 C11.132,12.2327 11.486,12.5867 11.922,12.5867" id="Fill-26" fill="#FEFEFE"></path>
                    <path d="M4.5792,9.5632 C4.6112,9.9612 4.8592,10.3272 5.2532,10.4902 C5.8132,10.7222 6.4562,10.4572 6.6882,9.8962 L8.2442,6.1392 C8.4762,5.5802 8.2112,4.9372 7.6502,4.7052 C7.4962,4.6402 7.3352,4.6162 7.1792,4.6232 C6.7672,4.6432 6.3832,4.8932 6.2152,5.2982 L4.6592,9.0552 C4.5902,9.2212 4.5652,9.3952 4.5792,9.5632" id="Fill-28" fill="#FEFEFE"></path>
                </g>
            </g>
        </g>
    </g>
</svg>