<svg id="Camada_1" data-name="Camada 1" xmlns="http://www.w3.org/2000/svg" viewBox="0 0 17.62 22.44"><defs><style>.cls-1{fill:#fff;}.cls-2{fill:#469ed6;}</style></defs><title>papel</title><path class="cls-1" d="M6.31,20.58" transform="translate(-6.16 -4.43)"/><path class="cls-2" d="M8.2,26.77H8c-1.16.09-1.79-.41-1.76-1.62,0-2,0-4.08,0-6.12q0-4.45,0-8.9,0-1.23,0-2.47a6.48,6.48,0,0,1,0-2,1.66,1.66,0,0,1,.29-.42,3.24,3.24,0,0,1,.61-.57,2.65,2.65,0,0,1,1.57-.24h8.72l6.24,6.33V25.41s.62,1.35-1.44,1.42c-2.61.09-5.23,0-7.83,0C12.34,26.76,10.27,26.64,8.2,26.77Z" transform="translate(-6.16 -4.43)"/><polygon class="cls-1" points="9.85 1.78 9.85 8.07 16.19 8.07 9.85 1.78"/></svg>