<svg id="Camada_2" data-name="Camada 2" xmlns="http://www.w3.org/2000/svg" viewBox="0 0 24.71 19.37"><defs><style>.cls-1,.cls-3{fill:#61abda;}.cls-2,.cls-4{fill:none;}.cls-2,.cls-3,.cls-4{stroke:#61abda;stroke-miterlimit:10;}.cls-2{stroke-width:2px;}</style></defs><title>pc</title><path class="cls-1" d="M13.28,21.16a2.46,2.46,0,0,1,0,1.11,1.45,1.45,0,0,1-.47.77,6,6,0,0,1-1.28.56c-.11.05-.23.14-.22.26a.23.23,0,0,0,.07.14.82.82,0,0,0,.6.17c1.12,0,2.25,0,3.37,0l1.69,0A4.36,4.36,0,0,0,18.56,24a.42.42,0,0,0,.18-.13c.18-.24-.11-.47-.32-.52a3.21,3.21,0,0,0-.47,0c-1.1-.09-1.27-1.32-1.3-2.2" transform="translate(-2.65 -4.81)"/><rect class="cls-2" x="1" y="1" width="22.71" height="14.72" rx="5.3" ry="5.3"/><rect class="cls-3" x="6.02" y="5.19" width="1.54" height="1.54"/><rect class="cls-4" x="10.02" y="5.6" width="9.25" height="0.35"/><rect class="cls-3" x="6.02" y="9.83" width="1.54" height="1.54"/><rect class="cls-3" x="10.02" y="10.25" width="9.25" height="0.35"/></svg>